{"title":"Pride (2014) 1080p BDRip x264-pong","uid":15587850,"size":1558763858,"categoryP":"video","categoryS":"movies","magnet":"?xt=urn:btih:3b360cc309d9ff5ba9878bc6f303953a5e86b87d&amp;dn=Pride+%282014%29+1080p+BDRip+x264-pong&amp;tr=udp%3A%2F%2Ftracker.leechers-paradise.org%3A6969&amp;tr=udp%3A%2F%2Fzer0day.ch%3A1337&amp;tr=udp%3A%2F%2Fopen.demonii.com%3A1337&amp;tr=udp%3A%2F%2Ftracker.coppersurfer.tk%3A6969&amp;tr=udp%3A%2F%2Fexodus.desync.com%3A6969","seeders":0,"leechers":1,"uploader":"Pongydog","files":1,"time":1471484590,"description":"http://www.imdb.com/title/tt3169706/\r\n\r\n\r\n\r\n\r\nU.K. gay activists work to help miners during their lengthy strike of the National Union of Mineworkers in the summer of 1984. \r\n\r\nDirector: Matthew Warchus  \r\n\r\nWriter: Stephen Beresford (screenplay)  \r\n\r\nStars: Bill Nighy,  Imelda Staunton,  Dominic West  | See full cast &amp; crew » \r\n\r\nGeneral\r\nComplete name                            : C:Usersuser1VideosPride (2014) 1080p BDRip x264-pong.mp4\r\nFormat                                   : MPEG-4\r\nFormat profile                           : Base Media\r\nCodec ID                                 : isom (isom/iso2/avc1/mp41)\r\nFile size                                : 1.45 GiB\r\nDuration                                 : 2h 1mn\r\nOverall bit rate mode                    : Variable\r\nOverall bit rate                         : 1 713 Kbps\r\nEncoded date                             : UTC 2016-08-16 15:41:36\r\nTagged date                              : UTC 2016-08-16 15:41:36\r\nWriting application                      : Lavf57.36.100\r\n\r\nVideo\r\nID                                       : 1\r\nFormat                                   : AVC\r\nFormat/Info                              : Advanced Video Codec\r\nFormat profile                           :   \r\nFormat settings, CABAC                   : Yes\r\nFormat settings, ReFrames                : 8 frames\r\nCodec ID                                 : avc1\r\nCodec ID/Info                            : Advanced Video Coding\r\nDuration                                 : 2h 0mn\r\nBit rate                                 : 1 600 Kbps\r\nWidth                                    : 1 920 pixels\r\nHeight                                   : 804 pixels\r\nDisplay aspect ratio                     : 2.40:1\r\nOriginal display aspect ratio            : 2.40:1\r\nFrame rate mode                          : Constant\r\nFrame rate                               : 23.976 (24000/1001) fps\r\nColor space                              : YUV\r\nChroma subsampling                       : 4:2:0\r\nBit depth                                : 8 bits\r\nScan type                                : Progressive\r\nBits/(Pixel*Frame)                       : 0.043\r\nStream size                              : 1.34 GiB (92%)\r\nWriting library                          : x264 core 148 r2643\r\nEncoding settings                        : cabac=1 / ref=8 / deblock=1:0:0 / analyse=0x3:0x133 / me=umh / subme=9 / psy=1 / psy_rd=1.00:0.00 / mixed_ref=0 / me_range=16 / chroma_me=1 / trellis=2 / 8x8dct=1 / cqm=0 / deadzone=21,11 / fast_pskip=1 / chroma_qp_offset=-2 / threads=3 / lookahead_threads=1 / sliced_threads=0 / nr=0 / decimate=1 / interlaced=0 / bluray_compat=0 / constrained_intra=0 / bframes=3 / b_pyramid=0 / b_adapt=2 / b_bias=0 / direct=3 / weightb=1 / open_gop=0 / weightp=2 / keyint=239 / keyint_min=23 / scenecut=40 / intra_refresh=0 / rc_lookahead=60 / rc=2pass / mbtree=1 / bitrate=1600 / ratetol=1.0 / qcomp=0.60 / qpmin=10 / qpmax=69 / qpstep=4 / cplxblur=20.0 / qblur=0.5 / vbv_maxrate=2400 / vbv_bufsize=24000 / nal_hrd=none / filler=0 / ip_ratio=1.40 / aq=3:1.00\r\nEncoded date                             : UTC 2016-08-16 15:41:36\r\nTagged date                              : UTC 2016-08-16 15:41:36\r\nMenus                                    : 3\r\n\r\nAudio\r\nID                                       : 2\r\nFormat                                   : AAC\r\nFormat/Info                              : Advanced Audio Codec\r\nFormat profile                           : LC\r\nCodec ID                                 : 40\r\nDuration                                 : 2h 1mn\r\nBit rate mode                            : Variable\r\nBit rate                                 : 128 Kbps\r\nChannel(s)                               : 2 channels\r\nChannel positions                        : Front: L R\r\nSampling rate                            : 48.0 KHz\r\nFrame rate                               : 46.875 fps (1024 spf)\r\nCompression mode                         : Lossy\r\nStream size                              : 110 MiB (7%)\r\nLanguage                                 : English\r\nDefault                                  : Yes\r\nAlternate group                          : 1\r\nEncoded date                             : UTC 2016-08-16 15:41:36\r\nTagged date                              : UTC 2016-08-16 15:41:36\r\nMenus                                    : 3","torrent":{"xt":"urn:btih:3b360cc309d9ff5ba9878bc6f303953a5e86b87d","amp;dn":"Pride+%282014%29+1080p+BDRip+x264-pong","amp;tr":["udp%3A%2F%2Ftracker.leechers-paradise.org%3A6969","udp%3A%2F%2Fzer0day.ch%3A1337","udp%3A%2F%2Fopen.demonii.com%3A1337","udp%3A%2F%2Ftracker.coppersurfer.tk%3A6969","udp%3A%2F%2Fexodus.desync.com%3A6969"],"infoHash":"3b360cc309d9ff5ba9878bc6f303953a5e86b87d","infoHashBuffer":{"type":"Buffer","data":[59,54,12,195,9,217,255,91,169,135,139,198,243,3,149,58,94,134,184,125]},"announce":[],"urlList":[]}}